name C:\Users\u0101727\Documents\MyRepositories\upper-imu-dc\Results\main_tracking\Case_32\kinematics.mot
datacolumns 10
datarows 37
range 2.80000000 3.16000000
endheader 
time	clav_prot	clav_elev	scapula_abduction	scapula_elevation	scapula_upward_rot	scapula_winging	plane_elv	shoulder_elv	axial_rot	
          2.80000000	        -17.45687878	         -6.03715798	         -4.99604931	         -4.22011260	          9.73225923	          6.14907718	        -20.85201522	         17.53602361	         41.47445799	
          2.81000000	        -17.43669663	         -6.07720872	         -4.98761866	         -4.22081787	          9.68672971	          6.16525506	        -20.95529960	         17.48265800	         41.22173643	
          2.82000000	        -17.44166433	         -6.07954290	         -5.00653247	         -4.21744918	          9.66694346	          6.17187725	        -21.05608881	         17.45089326	         40.97645090	
          2.83000000	        -17.45313910	         -6.08084121	         -5.02938506	         -4.21750637	          9.66130895	          6.17603407	        -21.15955579	         17.43534165	         40.74856686	
          2.84000000	        -17.46958053	         -6.08334729	         -5.05541773	         -4.22142716	          9.66538503	          6.17923893	        -21.26706356	         17.42509288	         40.55162865	
          2.85000000	        -17.48991237	         -6.08738210	         -5.08430403	         -4.22857850	          9.67616835	          6.18210625	        -21.37796440	         17.41201741	         40.39901768	
          2.86000000	        -17.51309584	         -6.09241554	         -5.11571644	         -4.23779382	          9.69110656	          6.18486412	        -21.48947411	         17.39103633	         40.29957656	
          2.87000000	        -17.53798830	         -6.09758349	         -5.14917401	         -4.24766448	          9.70772648	          6.18758935	        -21.59697965	         17.35988538	         40.25425394	
          2.88000000	        -17.56333072	         -6.10200104	         -5.18402193	         -4.25674845	          9.72351226	          6.19034003	        -21.69458496	         17.31871550	         40.25441036	
          2.89000000	        -17.58780501	         -6.10493336	         -5.21948377	         -4.26371195	          9.73592837	          6.19321987	        -21.77576448	         17.26957876	         40.28190882	
          2.90000000	        -17.61013259	         -6.10586816	         -5.25475329	         -4.26742331	          9.74253923	          6.19639419	        -21.83409461	         17.21581658	         40.31114582	
          2.91000000	        -17.62922135	         -6.10452649	         -5.28913415	         -4.26702604	          9.74121887	          6.20007226	        -21.86409973	         17.16134641	         40.31311193	
          2.92000000	        -17.64435580	         -6.10084055	         -5.32222530	         -4.26200674	          9.73042687	          6.20446995	        -21.86218264	         17.10988350	         40.26108201	
          2.93000000	        -17.65538568	         -6.09493492	         -5.35410914	         -4.25226297	          9.70947419	          6.20977467	        -21.82748084	         17.06423326	         40.13665177	
          2.94000000	        -17.66284240	         -6.08715217	         -5.38547234	         -4.23816826	          9.67866521	          6.21614062	        -21.76238977	         17.02587103	         39.93404099	
          2.95000000	        -17.66792548	         -6.07813342	         -5.41760344	         -4.22061577	          9.63922938	          6.22372792	        -21.67251149	         16.99497429	         39.66083742	
          2.96000000	        -17.67234413	         -6.06890598	         -5.45224654	         -4.20100461	          9.59305052	          6.23276474	        -21.56597357	         16.97085929	         39.33513149	
          2.97000000	        -17.67804403	         -6.06089099	         -5.49132766	         -4.18112927	          9.54229072	          6.24358537	        -21.45226989	         16.95256498	         38.98095387	
          2.98000000	        -17.68687417	         -6.05577229	         -5.53660923	         -4.16295547	          9.48900527	          6.25661275	        -21.34080569	         16.93933655	         38.62403842	
          2.99000000	        -17.70025541	         -6.05524618	         -5.58935454	         -4.14831150	          9.43478807	          6.27229577	        -21.23928349	         16.93095576	         38.28831409	
          3.00000000	        -17.71890818	         -6.06073120	         -5.65006901	         -4.13856811	          9.38047960	          6.29103226	        -21.15217640	         16.92798139	         37.99252701	
          3.01000000	        -17.74268326	         -6.07311710	         -5.71833782	         -4.13439192	          9.32601404	          6.31309358	        -21.07970890	         16.93189833	         37.74709503	
          3.02000000	        -17.77051768	         -6.09260323	         -5.79274848	         -4.13563312	          9.27048000	          6.33855223	        -21.01771736	         16.94510144	         37.55218412	
          3.03000000	        -17.80053083	         -6.11865417	         -5.87091718	         -4.14137170	          9.21239901	          6.36722152	        -20.95846927	         16.97068039	         37.39777786	
          3.04000000	        -17.83028457	         -6.15008235	         -5.94969268	         -4.15011340	          9.15015840	          6.39862912	        -20.89221500	         17.01204984	         37.26568725	
          3.05000000	        -17.85720284	         -6.18523788	         -6.02558685	         -4.16009356	          9.08250037	          6.43204053	        -20.80908384	         17.07251324	         37.13283787	
          3.06000000	        -17.87907564	         -6.22225180	         -6.09536979	         -4.16961362	          9.00896051	          6.46652675	        -20.70090093	         17.15484777	         36.97500216	
          3.07000000	        -17.89453206	         -6.25926055	         -6.15668828	         -4.17732556	          8.93017201	          6.50105197	        -20.56256096	         17.26096208	         36.77033089	
          3.08000000	        -17.90338411	         -6.29455749	         -6.20856752	         -4.18240625	          8.84799839	          6.53455569	        -20.39274412	         17.39164094	         36.50233100	
          3.09000000	        -17.90677722	         -6.32666456	         -6.25168681	         -4.18461188	          8.76549137	          6.56601672	        -20.19395647	         17.54639762	         36.16205735	
          3.10000000	        -17.90711095	         -6.35436053	         -6.28835355	         -4.18423898	          8.68667861	          6.59450280	        -19.97202625	         17.72349124	         35.74917589	
          3.11000000	        -17.90772546	         -6.37671023	         -6.32215459	         -4.18202664	          8.61618469	          6.61921642	        -19.73522888	         17.92017795	         35.27148558	
          3.12000000	        -17.91238765	         -6.39311126	         -6.35733048	         -4.17901774	          8.55869986	          6.63954212	        -19.49318087	         18.13321359	         34.74276183	
          3.13000000	        -17.92464497	         -6.40333665	         -6.39796590	         -4.17638138	          8.51835119	          6.65508528	        -19.25564224	         18.35952934	         34.17934244	
          3.14000000	        -17.94714717	         -6.40753431	         -6.44711937	         -4.17520376	          8.49809215	          6.66568196	        -19.03143296	         18.59691303	         33.59635204	
          3.15000000	        -17.98106239	         -6.40615863	         -6.50604317	         -4.17627746	          8.49925849	          6.67136511	        -18.82768629	         18.84450300	         33.00456055	
          3.16000000	        -18.02571434	         -6.39984361	         -6.57366129	         -4.17993392	          8.52139719	          6.67229512	        -18.64953578	         19.10296117	         32.40858279	
